<svg width="1024" height="1024" viewBox="0 0 1024 1024" fill="none" xmlns="http://www.w3.org/2000/svg">
<path d="M0 0H1024V1024H0V0Z" fill="white"/>
<path d="M789 337.5C789 475.295 672.594 587 529 587C385.406 587 269 475.295 269 337.5C269 199.705 385.406 88 529 88C672.594 88 789 199.705 789 337.5Z" fill="url(#paint0_linear_3_3)"/>
<path d="M198 609.338V760.964H578V609.338L554.913 557.549V490.159L524.962 453.969V440.241H511.859V453.969L485.652 480.8L478.164 471.44V453.969H469.429L451.957 407.795L410.775 382.836L418.887 369.732V359.749H402.663V334.79L385.192 314.823L370.841 334.79V359.749H355.241V369.732L363.353 382.836L321.547 407.795L306.571 453.969H297.836V471.44L284.732 480.8L261.645 453.969V440.241H251.038V453.969L219.215 490.159V557.549L198 609.338Z" fill="#B4B4B4" stroke="black"/>
<path d="M387.064 538.205L379.576 498.895L387.064 489.535L398.296 498.895L387.064 538.205Z" fill="white" stroke="black"/>
<path d="M373.629 544.222L353.886 509.414L357.963 498.142L371.609 503.389L373.629 544.222Z" fill="white" stroke="black"/>
<path d="M400.119 541.93L409.579 503.047L420.27 497.627L426.618 510.797L400.119 541.93Z" fill="white" stroke="black"/>
<path d="M418.256 558.359L454.017 540.4L465.068 545.04L459.14 558.404L418.256 558.359Z" fill="white" stroke="black"/>
<path d="M408.793 547.083L436.87 518.569L448.827 519.405L447.515 533.967L408.793 547.083Z" fill="white" stroke="black"/>
<path d="M423.758 573.14L463.365 567.425L472.379 575.325L462.525 586.125L423.758 573.14Z" fill="white" stroke="black"/>
<path d="M358.162 559.734L318.546 554.084L312.117 543.968L324.61 536.374L358.162 559.734Z" fill="white" stroke="black"/>
<path d="M359.503 574.393L320.177 581.796L310.834 574.288L320.217 563.077L359.503 574.393Z" fill="white" stroke="black"/>
<path d="M365.914 548.587L332.192 527.043L330.528 515.173L345.044 513.432L365.914 548.587Z" fill="white" stroke="black"/>
<path d="M365.933 593.981L344.356 627.683L332.484 629.336L330.758 614.818L365.933 593.981Z" fill="white" stroke="black"/>
<path d="M379.827 598.844L370.246 637.697L359.539 643.084L353.231 629.894L379.827 598.844Z" fill="white" stroke="black"/>
<path d="M359.007 582.304L325.413 604.049L313.922 600.638L318.361 586.708L359.007 582.304Z" fill="white" stroke="black"/>
<path d="M416.952 595.947L446.527 622.904L446.152 634.884L431.551 634.135L416.952 595.947Z" fill="white" stroke="black"/>
<path d="M387.356 603.785L396.778 642.677L389.762 652.395L378.081 643.602L387.356 603.785Z" fill="white" stroke="black"/>
<path d="M419.999 588.819L459.233 596.696L465.081 607.158L452.18 614.035L419.999 588.819Z" fill="white" stroke="black"/>
<path d="M402.427 600.981L424.432 634.405L421.112 645.922L407.148 641.591L402.427 600.981Z" fill="white" stroke="black"/>
<circle cx="387.688" cy="571.276" r="21.3391" fill="white" stroke="black"/>
<path d="M385.192 283V314.823M372.089 291.736H397.048" stroke="black" stroke-width="2"/>
<path d="M722.534 732.255C727.93 704.498 732.802 648.329 709.112 645.702C649.748 645.661 517.04 645.375 461.115 644.558L456.533 728.973L722.534 732.255Z" fill="black" stroke="black" stroke-width="2"/>
<ellipse cx="491.658" cy="730.493" rx="21.3535" ry="22.6477" transform="rotate(8.81712 491.658 730.493)" fill="#D7D7D7"/>
<ellipse cx="671.712" cy="734.85" rx="21.3535" ry="22.6477" transform="rotate(8.81712 671.712 734.85)" fill="#BCBCBC"/>
<path d="M714.241 701.292C716.324 687.864 716.111 661.377 698.595 662.851L672.379 658.784L672.866 702.077L714.241 701.292Z" fill="white" stroke="white" stroke-width="2"/>
<path d="M638.745 698.305L637.806 662.145L491.103 662.308L495.239 698.964L638.745 698.305Z" fill="white" stroke="black" stroke-width="2"/>
<path d="M0 0V-20H-20V0H0ZM1024 0H1044V-20H1024V0ZM1024 1024V1044H1044V1024H1024ZM0 1024H-20V1044H0V1024ZM0 20H1024V-20H0V20ZM1004 0V1024H1044V0H1004ZM1024 1004H0V1044H1024V1004ZM20 1024V0H-20V1024H20Z" fill="black"/>
<defs>
<linearGradient id="paint0_linear_3_3" x1="529" y1="-239.688" x2="992.034" y2="869.83" gradientUnits="userSpaceOnUse">
<stop stop-color="#FAFF00"/>
<stop offset="1" stop-color="#FF5C00"/>
</linearGradient>
</defs>
</svg>
