<?xml version="1.0" standalone="no"?>
<!DOCTYPE svg PUBLIC "-//W3C//DTD SVG 20010904//EN"
 "http://www.w3.org/TR/2001/REC-SVG-20010904/DTD/svg10.dtd">
<svg version="1.0" xmlns="http://www.w3.org/2000/svg"
 width="1024.000000pt" height="1024.000000pt" viewBox="0 0 1024.000000 1024.000000"
 preserveAspectRatio="xMidYMid meet">

<g transform="translate(0.000000,1024.000000) scale(0.100000,-0.100000)"
fill="#000000" stroke="none">
<path d="M450 8235 l0 -1555 1555 0 1555 0 0 1555 0 1555 -1555 0 -1555 0 0
-1555z m2668 3 l-3 -1113 -1112 -3 -1113 -2 0 1115 0 1115 1115 0 1115 0 -2
-1112z"/>
<path d="M1340 8235 l0 -665 665 0 665 0 0 665 0 665 -665 0 -665 0 0 -665z"/>
<path d="M4010 9345 l0 -445 220 0 220 0 0 225 0 225 225 0 225 0 0 -225 0
-225 220 0 220 0 0 -220 0 -220 -665 0 -665 0 0 -225 0 -225 445 0 445 0 0
-220 0 -220 -225 0 -225 0 0 -225 0 -225 -220 0 -220 0 0 -445 0 -445 -670 0
-670 0 0 -220 0 -220 -220 0 -220 0 0 220 0 220 -445 0 -445 0 0 -220 0 -220
-225 0 -225 0 0 220 0 220 -220 0 -220 0 0 -220 0 -220 220 0 220 0 0 -670 0
-670 -220 0 -220 0 0 -220 0 -220 220 0 220 0 0 220 0 220 225 0 225 0 0 -220
0 -220 665 0 665 0 0 220 0 220 225 0 225 0 0 -220 0 -220 443 -2 442 -3 3
-667 2 -668 220 0 220 0 0 -220 0 -220 -220 0 -220 0 0 -445 0 -445 220 0 220
0 0 -225 0 -225 -220 0 -220 0 0 -220 0 -220 445 0 445 0 0 220 0 220 220 0
220 0 0 -220 0 -220 890 0 890 0 0 220 0 220 225 0 225 0 0 -220 0 -220 665 0
665 0 0 220 0 220 -445 0 -445 0 0 225 0 225 445 0 445 0 0 220 0 220 225 0
225 0 0 890 0 890 -670 0 -670 0 0 225 0 225 225 0 225 0 0 665 0 665 220 0
220 0 0 -220 0 -220 225 0 225 0 0 -225 0 -225 -225 0 -225 0 0 -220 0 -220
225 0 225 0 0 220 0 220 220 0 220 0 0 445 0 445 -220 0 -220 0 0 225 0 225
220 0 220 0 0 220 0 220 -445 0 -445 0 0 -220 0 -220 -220 0 -220 0 0 220 0
220 -225 0 -225 0 0 -220 0 -220 -220 0 -220 0 0 -225 0 -225 -225 0 -225 0 0
-220 0 -220 225 0 225 0 0 220 0 220 220 0 220 0 0 -665 0 -665 -220 0 -220 0
0 220 0 220 -445 0 -445 0 0 -220 0 -220 445 0 445 0 0 -225 0 -225 -225 0
-225 0 0 -445 0 -445 225 0 225 0 0 225 0 225 220 0 220 0 0 -445 0 -445 445
0 445 0 0 -225 0 -225 -445 0 -445 0 0 -220 0 -220 -220 0 -220 0 0 220 0 220
-225 0 -225 0 0 225 0 225 -220 0 -220 0 0 -225 0 -225 220 0 220 0 0 -220 0
-220 -445 0 -445 0 0 665 0 665 225 0 225 0 0 225 0 225 -445 0 -445 0 0 220
0 220 220 0 220 0 0 670 0 670 -220 0 -220 0 0 220 0 220 220 0 220 0 0 1115
0 1115 -220 0 -220 0 0 220 0 220 -222 2 -223 3 -3 223 -2 222 445 0 445 0 0
665 0 665 -220 0 -220 0 -2 -442 -3 -443 -222 -3 -223 -2 0 225 0 225 -220 0
-220 0 0 220 0 220 -445 0 -445 0 0 -445z m890 -2445 l0 -220 220 0 220 0 0
220 0 220 225 0 225 0 0 -220 0 -220 -225 0 -225 0 0 -225 0 -225 -220 0 -220
0 0 -220 0 -220 445 0 445 0 0 -225 0 -225 -225 0 -225 0 0 -220 0 -220 -220
0 -220 0 0 -445 0 -445 220 0 220 0 0 -445 0 -445 -445 0 -445 0 0 220 0 220
225 0 225 0 0 225 0 225 -225 0 -225 0 0 445 0 445 -220 0 -220 0 0 220 0 220
220 0 220 0 0 -220 0 -220 225 0 225 0 0 445 0 445 -445 0 -445 0 0 220 0 220
220 0 220 0 0 445 0 445 225 0 225 0 0 -220z m-2672 -1332 l-3 -223 -222 -3
-223 -2 0 225 0 225 225 0 225 0 -2 -222z m1332 -3 l0 -225 -220 0 -220 0 0
-220 0 -220 220 0 220 0 0 -225 0 -225 -220 0 -220 0 0 225 0 225 -225 0 -225
0 0 -225 0 -225 -665 0 -665 0 0 225 0 225 665 0 665 0 0 220 0 220 225 0 225
0 0 225 0 225 220 0 220 0 0 -225z m2228 -3562 l2 -223 -670 0 -670 0 0 225 0
225 668 -2 667 -3 3 -222z m442 -888 l0 -225 -220 0 -220 0 0 225 0 225 220 0
220 0 0 -225z"/>
<path d="M6680 8235 l0 -1555 1555 0 1555 0 0 1555 0 1555 -1555 0 -1555 0 0
-1555z m2670 0 l0 -1115 -1112 2 -1113 3 -3 1113 -2 1112 1115 0 1115 0 0
-1115z"/>
<path d="M7570 8235 l0 -665 665 0 665 0 0 665 0 665 -665 0 -665 0 0 -665z"/>
<path d="M6680 6010 l0 -220 220 0 220 0 0 220 0 220 -220 0 -220 0 0 -220z"/>
<path d="M450 2005 l0 -1555 1555 0 1555 0 0 1555 0 1555 -1555 0 -1555 0 0
-1555z m2668 -2 l2 -1113 -1115 0 -1115 0 0 1115 0 1115 1113 -2 1112 -3 3
-1112z"/>
<path d="M1340 2005 l0 -665 665 0 665 0 0 665 0 665 -665 0 -665 0 0 -665z"/>
<path d="M9350 1115 l0 -225 220 0 220 0 0 225 0 225 -220 0 -220 0 0 -225z"/>
</g>
</svg>
