<?xml version="1.0" standalone="no"?>
<!DOCTYPE svg PUBLIC "-//W3C//DTD SVG 20010904//EN"
 "http://www.w3.org/TR/2001/REC-SVG-20010904/DTD/svg10.dtd">
<svg version="1.0" xmlns="http://www.w3.org/2000/svg"
 width="512.000000pt" height="512.000000pt" viewBox="0 0 512.000000 512.000000"
 preserveAspectRatio="xMidYMid meet">

<g transform="translate(0.000000,512.000000) scale(0.100000,-0.100000)"
fill="#000000" stroke="none">
<path d="M3797 4784 c-173 -31 -349 -111 -496 -224 -203 -157 -343 -379 -408
-649 -13 -54 -17 -147 -20 -501 l-4 -435 -745 -745 -744 -745 213 -213 212
-212 744 744 744 744 431 5 c455 5 476 7 628 58 343 114 623 405 722 751 115
401 4 823 -294 1119 -159 157 -369 264 -594 304 -108 18 -284 18 -389 -1z
m328 -599 c244 -64 413 -300 392 -548 -21 -240 -201 -437 -439 -477 -242 -42
-497 111 -578 345 -98 284 64 593 355 676 76 22 193 24 270 4z"/>
<path d="M1057 2862 l-207 -207 107 -108 108 -107 -212 -212 -213 -213 -103
103 c-56 56 -107 102 -112 102 -6 0 -104 -93 -218 -208 l-207 -207 318 -318
317 -317 635 635 635 635 -315 315 c-173 173 -317 315 -320 315 -3 0 -99 -93
-213 -208z"/>
<path d="M900 1005 l-265 -265 213 -212 212 -213 265 265 265 265 -213 213
-212 212 -265 -265z"/>
</g>
</svg>
